<svg viewBox="0 0 96 96" xmlns="http://www.w3.org/2000/svg" xmlns:xlink="http://www.w3.org/1999/xlink" id="Icons_QuestionMark_LTR" overflow="hidden"><circle cx="48" cy="78.44" r="6.62" stroke-width="1.00017" fill="#FFFFFF"/><path d="M52 54.35 52 67 44 67 44 46.68 48 46.68C56.84 46.68 62.56 41.48 62.56 33.44 62.7388 25.5775 56.5099 19.0588 48.6474 18.88 48.4316 18.8751 48.2158 18.8751 48 18.88 38.88 18.88 33.44 24.88 33.44 34L25.5 34C25.5 20.54 34.5 10.94 48 10.94 60.2931 10.8067 70.3667 20.6642 70.5 32.9574 70.5017 33.1182 70.5017 33.2791 70.5 33.44 70.5 44.63 63.1 52.79 52 54.35Z" stroke-width="1.00017" fill="#FFFFFF"/></svg>